<svg xmlns="http://www.w3.org/2000/svg" width="12" height="41" viewBox="0 0 12 41" fill="none">
<path d="M10.1101 4.66265C10.3212 4.64346 10.5227 4.96967 10.7146 5.64129C10.9256 6.33209 11.0312 6.89816 11.0312 7.3395C11.0312 7.55058 10.9928 7.64653 10.9161 7.62734L6.42585 5.4398C6.36828 5.42061 6.3395 5.36305 6.3395 5.2671C6.3395 5.19035 6.36828 5.15197 6.42585 5.15197L10.1101 4.66265ZM6.59855 0.834461C6.61774 0.642571 6.94395 0.546627 7.57718 0.546627C8.05691 0.546627 8.53663 0.594599 9.01635 0.690544C9.51526 0.805677 9.72634 0.901622 9.64959 0.978378L6.1668 4.60508C6.14761 4.64346 6.09004 4.64346 5.9941 4.60508C5.91734 4.58589 5.88856 4.55711 5.90775 4.51873L6.59855 0.834461ZM5.70626 5.84277C5.70626 5.80439 5.74464 5.77561 5.8214 5.75642C5.89815 5.73723 5.94612 5.74682 5.96531 5.7852L7.57718 9.12407C7.65394 9.29677 7.48124 9.53664 7.05908 9.84366C6.63693 10.1699 6.18599 10.4481 5.70626 10.6784C5.24573 10.9086 5.01546 10.9662 5.01546 10.8511L5.70626 5.84277ZM1.90686 3.022C1.8301 3.00281 1.79172 2.90686 1.79172 2.73416C1.79172 2.48471 1.87807 2.13931 2.05077 1.69796C2.22347 1.25662 2.40577 0.872838 2.59766 0.546626C2.80874 0.220415 2.93346 0.0956868 2.97184 0.172443L5.33208 4.5763L5.36086 4.63387C5.36086 4.69143 5.33208 4.73941 5.27451 4.77778C5.23613 4.83535 5.19776 4.85454 5.15938 4.83535L1.90686 3.022ZM5.04425 5.32467C5.08262 5.30548 5.13059 5.33426 5.18816 5.41102C5.26492 5.48777 5.28411 5.54534 5.24573 5.58372L2.51131 8.14544C2.39617 8.26057 2.11793 8.16463 1.67659 7.85761C1.25443 7.56977 0.86106 7.23397 0.49647 6.85019C0.15107 6.46641 0.0359361 6.26492 0.151069 6.24574L5.04425 5.32467Z" fill="white"/>
<path d="M10.1101 19.223C10.3212 19.2038 10.5227 19.53 10.7146 20.2016C10.9256 20.8924 11.0312 21.4585 11.0312 21.8998C11.0312 22.1109 10.9928 22.2069 10.9161 22.1877L6.42585 20.0001C6.36828 19.981 6.3395 19.9234 6.3395 19.8274C6.3395 19.7507 6.36828 19.7123 6.42585 19.7123L10.1101 19.223ZM6.59855 15.3948C6.61774 15.2029 6.94395 15.107 7.57718 15.107C8.05691 15.107 8.53663 15.1549 9.01635 15.2509C9.51526 15.366 9.72634 15.462 9.64959 15.5387L6.1668 19.1654C6.14761 19.2038 6.09004 19.2038 5.9941 19.1654C5.91734 19.1462 5.88856 19.1175 5.90775 19.0791L6.59855 15.3948ZM5.70626 20.4031C5.70626 20.3647 5.74464 20.336 5.8214 20.3168C5.89815 20.2976 5.94612 20.3072 5.96531 20.3455L7.57718 23.6844C7.65394 23.8571 7.48124 24.097 7.05908 24.404C6.63693 24.7302 6.18599 25.0085 5.70626 25.2387C5.24573 25.469 5.01546 25.5266 5.01546 25.4114L5.70626 20.4031ZM1.90685 17.5823C1.8301 17.5632 1.79172 17.4672 1.79172 17.2945C1.79172 17.045 1.87807 16.6997 2.05077 16.2583C2.22347 15.817 2.40577 15.4332 2.59766 15.107C2.80874 14.7808 2.93346 14.656 2.97184 14.7328L5.33208 19.1366L5.36086 19.1942C5.36086 19.2518 5.33208 19.2997 5.27451 19.3381C5.23613 19.3957 5.19776 19.4149 5.15938 19.3957L1.90685 17.5823ZM5.04424 19.885C5.08262 19.8658 5.13059 19.8946 5.18816 19.9714C5.26492 20.0481 5.28411 20.1057 5.24573 20.1441L2.51131 22.7058C2.39617 22.8209 2.11793 22.725 1.67659 22.4179C1.25443 22.1301 0.861059 21.7943 0.49647 21.4105C0.15107 21.0268 0.0359355 20.8253 0.151069 20.8061L5.04424 19.885Z" fill="white"/>
<path d="M10.1101 33.7833C10.3212 33.7641 10.5227 34.0904 10.7146 34.762C10.9256 35.4528 11.0312 36.0188 11.0312 36.4602C11.0312 36.6713 10.9928 36.7672 10.9161 36.748L6.42585 34.5605C6.36828 34.5413 6.3395 34.4837 6.3395 34.3878C6.3395 34.311 6.36828 34.2727 6.42585 34.2727L10.1101 33.7833ZM6.59855 29.9551C6.61774 29.7633 6.94395 29.6673 7.57718 29.6673C8.05691 29.6673 8.53663 29.7153 9.01635 29.8112C9.51526 29.9264 9.72634 30.0223 9.64959 30.0991L6.1668 33.7258C6.14761 33.7641 6.09004 33.7641 5.9941 33.7258C5.91734 33.7066 5.88856 33.6778 5.90775 33.6394L6.59855 29.9551ZM5.70626 34.9635C5.70626 34.9251 5.74464 34.8963 5.8214 34.8771C5.89815 34.8579 5.94612 34.8675 5.96531 34.9059L7.57718 38.2448C7.65394 38.4175 7.48124 38.6573 7.05908 38.9643C6.63692 39.2906 6.18598 39.5688 5.70626 39.7991C5.24573 40.0293 5.01546 40.0869 5.01546 39.9718L5.70626 34.9635ZM1.90685 32.1427C1.8301 32.1235 1.79172 32.0275 1.79172 31.8548C1.79172 31.6054 1.87807 31.26 2.05077 30.8186C2.22347 30.3773 2.40577 29.9935 2.59766 29.6673C2.80873 29.3411 2.93346 29.2164 2.97184 29.2931L5.33208 33.697L5.36086 33.7546C5.36086 33.8121 5.33208 33.8601 5.27451 33.8985C5.23613 33.956 5.19775 33.9752 5.15938 33.956L1.90685 32.1427ZM5.04424 34.4454C5.08262 34.4262 5.13059 34.4549 5.18816 34.5317C5.26492 34.6085 5.28411 34.666 5.24573 34.7044L2.51131 37.2661C2.39617 37.3813 2.11793 37.2853 1.67659 36.9783C1.25443 36.6905 0.861059 36.3547 0.496469 35.9709C0.151069 35.5871 0.0359348 35.3856 0.151068 35.3664L5.04424 34.4454Z" fill="white"/>
</svg>