<svg xmlns="http://www.w3.org/2000/svg" width="56" height="29" viewBox="0 0 56 29" fill="none">
<path d="M5.82273 19.7067C5.50153 20.0158 5.13399 20.3068 4.75075 20.5609C4.70832 20.5894 4.66044 20.6096 4.60986 20.6203C4.55928 20.6309 4.50699 20.6319 4.45602 20.6231C4.40504 20.6143 4.35638 20.5959 4.31284 20.569C4.2693 20.5421 4.23174 20.5071 4.20232 20.4662C4.1729 20.4253 4.15221 20.3792 4.14143 20.3306C4.13065 20.2819 4.13 20.2317 4.13951 20.1829C4.14902 20.134 4.16851 20.0874 4.19686 20.0458C4.22521 20.0042 4.26185 19.9684 4.30468 19.9404C5.12466 19.4017 5.81092 18.6961 6.31463 17.8738C6.81835 17.0516 7.12714 16.1329 7.21906 15.1831C7.31099 14.2334 7.18377 13.2758 6.84647 12.3785C6.50917 11.4813 5.97006 10.6664 5.2675 9.99189C4.97137 9.71257 4.65024 9.45879 4.30782 9.23346C4.26362 9.20601 4.22563 9.17031 4.19609 9.12847C4.16656 9.08664 4.14609 9.03954 4.1359 8.98996C4.12571 8.94038 4.12601 8.88934 4.13678 8.83987C4.14755 8.79041 4.16857 8.74353 4.19859 8.70201C4.22861 8.6605 4.26702 8.62521 4.31154 8.59824C4.35605 8.57126 4.40576 8.55315 4.45771 8.54499C4.50966 8.53683 4.56279 8.53877 4.61394 8.55072C4.66509 8.56266 4.71322 8.58435 4.75546 8.61451C5.14813 8.87536 5.51409 9.16335 5.82352 9.45964C7.23906 10.8186 8.0343 12.6617 8.0343 14.5835C8.0343 16.5054 7.23906 18.3485 5.82352 19.7075L5.82273 19.7067ZM4.27326 18.0217C3.89066 18.3841 3.45197 18.6875 2.97275 18.9211C2.92669 18.9454 2.87603 18.9606 2.82376 18.9657C2.77149 18.9708 2.71867 18.9659 2.66844 18.9511C2.61822 18.9362 2.5716 18.9119 2.53135 18.8795C2.49109 18.8471 2.45803 18.8072 2.43411 18.7623C2.41019 18.7174 2.39591 18.6683 2.3921 18.618C2.3883 18.5677 2.39505 18.5172 2.41195 18.4694C2.42886 18.4217 2.45558 18.3777 2.49053 18.34C2.52548 18.3023 2.56795 18.2718 2.61542 18.2502C3.02155 18.0523 3.39346 17.7954 3.71803 17.4887C4.19634 17.0297 4.55454 16.4684 4.76324 15.8508C4.97195 15.2332 5.02523 14.577 4.91872 13.9358C4.8122 13.2947 4.54893 12.6869 4.15047 12.1622C3.75202 11.6376 3.22973 11.2111 2.62641 10.9177C2.58012 10.8955 2.53885 10.8647 2.50499 10.8271C2.47112 10.7896 2.44533 10.7459 2.42909 10.6988C2.41285 10.6516 2.40648 10.6018 2.41035 10.5523C2.41422 10.5027 2.42826 10.4544 2.45165 10.4101C2.47504 10.3658 2.50733 10.3263 2.54666 10.294C2.58598 10.2617 2.63157 10.2372 2.6808 10.2219C2.73003 10.2066 2.78193 10.2008 2.83352 10.2048C2.8851 10.2087 2.93535 10.2225 2.98138 10.2452C3.69536 10.5925 4.31345 11.0972 4.78498 11.7181C5.25652 12.339 5.56808 13.0583 5.69413 13.817C5.82018 14.5758 5.75714 15.3525 5.51016 16.0833C5.26318 16.8142 4.8393 17.4785 4.27326 18.0217ZM2.31228 16.7325C2.03427 17.0002 1.69186 17.2203 1.32747 17.3734C1.23232 17.4121 1.12513 17.4132 1.02912 17.3765C0.933113 17.3398 0.856036 17.2683 0.814597 17.1774C0.77316 17.0866 0.770703 16.9837 0.807757 16.8911C0.844812 16.7985 0.918393 16.7237 1.01255 16.6828C1.28942 16.5671 1.54178 16.4036 1.75705 16.2003C1.97831 15.988 2.15383 15.7358 2.27358 15.4584C2.39333 15.1809 2.45497 14.8835 2.45497 14.5832C2.45497 14.2828 2.39333 13.9854 2.27358 13.708C2.15383 13.4305 1.97831 13.1784 1.75705 12.966C1.54451 12.7648 1.29467 12.6035 1.0204 12.4903C0.972555 12.4709 0.929207 12.4425 0.89287 12.4068C0.856533 12.3712 0.82793 12.329 0.808718 12.2826C0.789505 12.2363 0.780065 12.1867 0.780946 12.1368C0.781827 12.087 0.793011 12.0378 0.813848 11.9921C0.834687 11.9464 0.864765 11.9051 0.902339 11.8706C0.939914 11.8362 0.984238 11.8092 1.03274 11.7914C1.08125 11.7735 1.13297 11.765 1.18491 11.7664C1.23685 11.7679 1.28797 11.7792 1.33532 11.7998C1.69923 11.9506 2.03058 12.1653 2.31228 12.433C2.60644 12.7154 2.83979 13.0506 2.99899 13.4195C3.15819 13.7884 3.24013 14.1838 3.24013 14.5832C3.24013 14.9825 3.15819 15.3779 2.99899 15.7468C2.83979 16.1158 2.60644 16.4502 2.31228 16.7325Z" fill="#1D1D1C"/>
<g clip-path="url(#clip0_0_108)">
<path d="M40.5932 21.6729C40.6614 21.7305 40.7343 21.7881 40.806 21.8445C39.3762 22.7961 37.6964 23.3024 35.9789 23.2996C34.6188 23.2996 33.2776 22.9813 32.0626 22.3701C30.8476 21.759 29.7924 20.872 28.9815 19.7801C28.1706 18.6882 27.6265 17.4217 27.3927 16.0819C27.1588 14.7421 27.2418 13.3662 27.6349 12.0641C28.028 10.7621 28.7203 9.57015 29.6566 8.58359C30.5928 7.59703 31.7469 6.84325 33.0265 6.38253C34.3062 5.92182 35.6759 5.76696 37.0261 5.93034C38.3763 6.09372 39.6696 6.57081 40.8024 7.32344C40.7319 7.38338 40.6614 7.43862 40.6085 7.49974C39.5904 8.37821 38.7735 9.46577 38.2135 10.6884C37.6535 11.9109 37.3636 13.2398 37.3634 14.5846C37.3637 15.9283 37.6522 17.2564 38.2093 18.4791C38.7665 19.7019 39.5794 20.791 40.5932 21.6729ZM46.7531 5.8684C44.9666 5.8684 43.3082 6.40434 41.9284 7.32344C41.9989 7.38338 42.0694 7.43862 42.1223 7.49974C43.1404 8.37821 43.9573 9.46577 44.5173 10.6884C45.0773 11.9109 45.3672 13.2398 45.3674 14.5846C45.3666 15.9282 45.078 17.2561 44.5208 18.4789C43.9637 19.7016 43.151 20.7907 42.1376 21.6729C42.0694 21.7305 41.9966 21.7881 41.9249 21.8445C43.3545 22.7964 45.0344 23.3028 46.7519 23.2996C47.8966 23.3 49.0302 23.075 50.0879 22.6372C51.1456 22.1994 52.1067 21.5575 52.9162 20.7482C53.7258 19.9389 54.3679 18.978 54.806 17.9204C55.244 16.8628 55.4694 15.7293 55.4693 14.5846C55.469 12.273 54.5505 10.0562 52.916 8.42165C51.2815 6.78712 49.0647 5.86871 46.7531 5.8684ZM41.3654 7.73716C40.3271 8.5508 39.4878 9.59032 38.9113 10.7768C38.3348 11.9632 38.0361 13.2655 38.0381 14.5846C38.0358 15.9039 38.3343 17.2064 38.9108 18.3931C39.4874 19.5798 40.3268 20.6195 41.3654 21.4332C42.4037 20.6193 43.243 19.5796 43.8195 18.3929C44.396 17.2063 44.6947 15.9039 44.6927 14.5846C44.6947 13.2655 44.396 11.9632 43.8195 10.7768C43.243 9.59032 42.4037 8.5508 41.3654 7.73716Z" fill="#1D1D1C"/>
</g>
<defs>
<clipPath id="clip0_0_108">
<rect width="28.2077" height="28.2077" fill="white" transform="translate(27.2615 0.480713)"/>
</clipPath>
</defs>
</svg>